<svg width="1024" height="1024" viewBox="0 0 1024 1024" fill="none" xmlns="http://www.w3.org/2000/svg">
<rect x="92" y="92" width="840" height="840" rx="75" fill="url(#paint0_radial)"/>
<path d="M357.475 405.636H291L352.727 642H414.453L443.734 511.212L476.18 642H534.741L475.388 405.636H420.784L389.13 541.152L357.475 405.636Z" fill="white"/>
<path d="M731 382L552.151 405.636L526.036 581.333C530.784 580.808 543.604 579.285 556.899 577.394C570.194 575.503 578.266 560.323 580.64 552.97L599.633 444.242C622.583 441.354 672.914 434.945 690.64 432.424C708.367 429.903 721.24 415.091 725.46 408L731 382Z" fill="white"/>
<path d="M650.281 619.152L541.072 642C539.173 636.958 539.753 626.768 540.281 622.303C541.547 600.873 564.549 588.162 575.892 584.485C586.707 582.384 611.345 577.709 623.374 575.818C635.403 573.927 641.048 566.626 642.367 563.212C644.213 558.222 648.223 546.824 649.489 541.152C650.755 535.479 645.269 534.586 642.367 534.848L593.302 546.667C603.59 500.182 612.295 506.485 662.942 496.242C703.46 488.048 710.952 511.737 709.633 524.606C705.149 539.576 694.597 573.612 688.266 590C681.935 606.388 660.305 616.263 650.281 619.152Z" fill="white"/>
<defs>
<radialGradient id="paint0_radial" cx="0" cy="0" r="1" gradientUnits="userSpaceOnUse" gradientTransform="translate(118.102 92) rotate(47.7989) scale(1133.92)">
<stop stop-color="#FF5F5F"/>
<stop offset="1" stop-color="#5F14FF"/>
</radialGradient>
</defs>
</svg>
