<svg width="836" height="260" viewBox="0 0 836 260" fill="none" xmlns="http://www.w3.org/2000/svg">
<path d="M66.4748 23.6364H0L61.7266 260H123.453L152.734 129.212L185.18 260H243.741L184.388 23.6364H129.784L98.1295 159.152L66.4748 23.6364Z" fill="white"/>
<path d="M440 0L261.151 23.6364L235.036 199.333C239.784 198.808 252.604 197.285 265.899 195.394C279.194 193.503 287.266 178.323 289.64 170.97L308.633 62.2424C331.583 59.3535 381.914 52.9455 399.64 50.4242C417.367 47.903 430.24 33.0909 434.46 26L440 0Z" fill="white"/>
<path d="M359.281 237.152L250.072 260C248.173 254.958 248.753 244.768 249.281 240.303C250.547 218.873 273.549 206.162 284.892 202.485C295.707 200.384 320.345 195.709 332.374 193.818C344.403 191.927 350.048 184.626 351.367 181.212C353.213 176.222 357.223 164.824 358.489 159.152C359.755 153.479 354.269 152.586 351.367 152.848L302.302 164.667C312.59 118.182 321.295 124.485 371.942 114.242C412.46 106.048 419.952 129.737 418.633 142.606C414.149 157.576 403.597 191.612 397.266 208C390.935 224.388 369.305 234.263 359.281 237.152Z" fill="white"/>
<path d="M513.459 74.8438V97.4873H527.546V109.846H513.459V167.838C513.459 171.525 514.064 174.32 515.274 176.221C516.484 178.123 518.558 179.073 521.497 179.073C523.513 179.073 525.559 178.728 527.633 178.036L527.46 191C524.003 192.152 520.459 192.729 516.83 192.729C510.78 192.729 506.17 190.568 503.001 186.247C499.833 181.925 498.248 175.818 498.248 167.924V109.846H483.988V97.4873H498.248V74.8438H513.459ZM579.229 192.729C567.59 192.729 558.66 189.271 552.437 182.357C546.214 175.386 543.045 165.188 542.93 151.763V140.441C542.93 126.498 545.955 115.579 552.005 107.686C558.112 99.7344 566.611 95.7588 577.5 95.7588C588.448 95.7588 596.629 99.2446 602.045 106.216C607.461 113.188 610.227 124.049 610.342 138.799V148.824H558.141V150.985C558.141 161.01 560.014 168.299 563.759 172.851C567.562 177.402 573.006 179.678 580.093 179.678C584.587 179.678 588.534 178.843 591.934 177.172C595.391 175.443 598.617 172.735 601.613 169.048L609.564 178.728C602.938 188.062 592.827 192.729 579.229 192.729ZM577.5 108.896C571.163 108.896 566.467 111.085 563.413 115.464C560.359 119.785 558.631 126.526 558.228 135.688H595.045V133.613C594.642 124.74 593.028 118.402 590.205 114.6C587.439 110.797 583.205 108.896 577.5 108.896ZM676.89 191C675.968 188.983 675.306 185.584 674.902 180.802C669.486 188.753 662.572 192.729 654.16 192.729C645.69 192.729 639.064 190.366 634.282 185.642C629.558 180.859 627.195 174.147 627.195 165.504C627.195 155.998 630.422 148.45 636.875 142.861C643.328 137.272 652.172 134.42 663.408 134.305H674.643V124.366C674.643 118.777 673.404 114.801 670.927 112.439C668.449 110.077 664.675 108.896 659.605 108.896C654.996 108.896 651.25 110.278 648.37 113.044C645.489 115.752 644.048 119.209 644.048 123.415H628.751C628.751 118.633 630.163 114.081 632.986 109.76C635.809 105.381 639.612 101.953 644.394 99.4751C649.176 96.9976 654.506 95.7588 660.383 95.7588C669.947 95.7588 677.207 98.1499 682.162 102.932C687.175 107.657 689.739 114.571 689.854 123.674V170.863C689.912 178.065 690.891 184.316 692.792 189.617V191H676.89ZM656.494 178.814C660.239 178.814 663.811 177.777 667.21 175.703C670.61 173.628 673.087 171.036 674.643 167.924V145.626H666C658.741 145.742 653.008 147.384 648.802 150.553C644.596 153.664 642.493 158.043 642.493 163.689C642.493 168.99 643.559 172.851 645.69 175.271C647.822 177.633 651.423 178.814 656.494 178.814ZM728.054 97.4873L728.4 106.13C734.104 99.2158 741.623 95.7588 750.957 95.7588C761.386 95.7588 768.674 100.282 772.823 109.328C778.7 100.282 786.881 95.7588 797.368 95.7588C814.595 95.7588 823.411 106.504 823.814 127.996V191H808.603V129.465C808.603 122.666 807.393 117.625 804.973 114.34C802.553 110.999 798.462 109.328 792.701 109.328C788.091 109.328 784.346 111.114 781.465 114.686C778.584 118.258 776.914 122.81 776.453 128.341V191H761.069V128.773C760.896 115.81 755.624 109.328 745.253 109.328C737.532 109.328 732.087 113.188 728.918 120.909V191H713.708V97.4873H728.054Z" fill="white"/>
</svg>
